<?xml version="1.0" encoding="iso-8859-1"?>
<!-- Generator: Adobe Illustrator 19.0.0, SVG Export Plug-In . SVG Version: 6.00 Build 0)  -->
<svg version="1.1" id="Layer_1" xmlns="http://www.w3.org/2000/svg" xmlns:xlink="http://www.w3.org/1999/xlink" x="0px" y="0px"
	 viewBox="0 0 492.8 492.8" style="enable-background:new 0 0 492.8 492.8;" xml:space="preserve">
<g>
	<g>
		<path d="M453.557,446.4V44.8c0-24-19.2-44.8-44.8-44.8h-294.4c-24,0-44.8,19.2-44.8,44.8V448c0,24,19.2,44.8,44.8,44.8h296
			C434.357,492.8,455.157,472,453.557,446.4z M421.557,446.4c0,6.4-4.8,12.8-12.8,12.8h-294.4c-6.4,0-12.8-4.8-12.8-12.8V44.8
			c0-6.4,6.4-12.8,12.8-12.8h294.4c6.4,0,12.8,4.8,12.8,12.8V446.4z"/>
	</g>
</g>
<g>
	<g>
		<path d="M115.957,76.8h-60.8c-9.6,0-16,6.4-16,16c0,9.6,6.4,16,16,16h60.8c9.6,0,16-6.4,16-16
			C131.957,83.2,125.557,76.8,115.957,76.8z"/>
	</g>
</g>
<g>
	<g>
		<path d="M115.957,137.6h-60.8c-9.6,0-16,6.4-16,16c0,9.6,6.4,16,16,16h60.8c9.6,0,16-6.4,16-16
			C131.957,144,125.557,137.6,115.957,137.6z"/>
	</g>
</g>
<g>
	<g>
		<path d="M115.957,200h-60.8c-9.6,0-16,6.4-16,16c0,9.6,6.4,16,16,16h60.8c9.6,0,16-6.4,16-16
			C131.957,206.4,125.557,200,115.957,200z"/>
	</g>
</g>
<g>
	<g>
		<path d="M115.957,260.8h-60.8c-9.6,0-16,6.4-16,16c0,9.6,6.4,16,16,16h60.8c9.6,0,16-6.4,16-16
			C131.957,267.2,125.557,260.8,115.957,260.8z"/>
	</g>
</g>
<g>
	<g>
		<path d="M115.957,323.2h-60.8c-9.6,0-16,6.4-16,16c0,9.6,6.4,16,16,16h60.8c9.6,0,16-6.4,16-16
			C131.957,329.6,125.557,323.2,115.957,323.2z"/>
	</g>
</g>
<g>
	<g>
		<path d="M115.957,384h-60.8c-9.6,0-16,6.4-16,16c0,9.6,6.4,16,16,16h60.8c9.6,0,16-6.4,16-16
			C131.957,390.4,125.557,384,115.957,384z"/>
	</g>
</g>
<g>
	<g>
		<path d="M338.357,320l-52.8-156.8c-1.6-6.4-8-11.2-14.4-11.2h-28.8c-6.4,0-12.8,4.8-14.4,11.2l-52.8,160
			c-3.2,9.6,1.6,17.6,9.6,20.8c1.6,1.6,3.2,1.6,4.8,1.6c6.4,0,12.8-4.8,16-11.2l49.6-148.8h3.2l49.6,145.6c3.2,8,12.8,12.8,20.8,9.6
			S341.557,328,338.357,320z"/>
	</g>
</g>
<g>
	<g>
		<path d="M301.557,260.8h-76.8c-9.6,0-16,6.4-16,16c0,9.6,6.4,16,16,16h76.8c8,0,16-6.4,16-16
			C317.557,267.2,311.157,260.8,301.557,260.8z"/>
	</g>
</g>
<g>
	<g>
		<path d="M208.757,323.2h-46.4c-9.6,0-16,6.4-16,16c0,9.6,6.4,16,16,16h46.4c8,0,16-6.4,16-16
			C224.757,329.6,218.357,323.2,208.757,323.2z"/>
	</g>
</g>
<g>
	<g>
		<path d="M346.357,323.2h-46.4c-9.6,0-16,6.4-16,16c0,9.6,6.4,16,16,16h46.4c9.6,0,16-6.4,16-16
			C362.357,329.6,355.957,323.2,346.357,323.2z"/>
	</g>
</g>
<g>
</g>
<g>
</g>
<g>
</g>
<g>
</g>
<g>
</g>
<g>
</g>
<g>
</g>
<g>
</g>
<g>
</g>
<g>
</g>
<g>
</g>
<g>
</g>
<g>
</g>
<g>
</g>
<g>
</g>
</svg>
